<svg xmlns="http://www.w3.org/2000/svg" fill="none" viewBox="0 0 131 131"><path fill-rule="evenodd" clip-rule="evenodd" d="M91.8 96.217V68.793c0-3.075-1.2-5.87-3.159-7.94a12.284 12.284 0 003.16-8.242c0-6.81-5.52-12.33-12.33-12.33H45.565v55.573l7.706 8.35V64.94h26.971a3.853 3.853 0 013.853 3.853v35.774zm-38.529-48.23h26.2a4.623 4.623 0 01.022 9.247H53.271z" fill="#40b7fc"/><path d="M28.528 33.134L15.216 52.918 52.09 92.873l-.72 9.1L6.7 53.572l18.26-27.138h87.78L131 53.571 88.272 99.87l-2.661-6.996 36.873-39.955-13.311-19.784z" fill="#40b7fc"/><path fill-rule="evenodd" clip-rule="evenodd" d="M85.1 96.217V68.793c0-3.075-1.201-5.87-3.16-7.94a12.284 12.284 0 003.16-8.242c0-6.81-5.52-12.33-12.33-12.33H38.864v55.573l7.706 8.35V64.94h26.971a3.853 3.853 0 013.853 3.853v35.774zm-38.53-48.23h26.2a4.624 4.624 0 01.022 9.247H46.57z" fill="#e92230"/><path d="M21.827 33.134L8.516 52.918l36.873 39.955-.719 9.1L0 53.572l18.26-27.138h87.78l18.259 27.138L81.571 99.87l-2.66-6.996 36.873-39.955-13.312-19.784z" fill="#e92230"/></svg>