<svg width="172" height="32" viewBox="0 0 172 32" fill="none" xmlns="http://www.w3.org/2000/svg">
<path d="M53.6744 10.0417V16.097H59.5878C59.8756 16.097 60.0554 16.0539 60.1274 15.9677C60.2137 15.8815 60.2569 15.7019 60.2569 15.4289V10.7098C60.2569 10.4224 60.2137 10.2429 60.1274 10.171C60.0554 10.0848 59.8756 10.0417 59.5878 10.0417H53.6744ZM53.6744 17.3683V22.1737H51.322V8.77036H60.9043C62.0409 8.77036 62.6093 9.33782 62.6093 10.4727V15.666C62.6093 16.8009 62.0409 17.3683 60.9043 17.3683H59.6741L62.7172 22.1737H60.2569L57.3002 17.3683H53.6744Z" fill="white"/>
<path d="M74.2064 11.7226H76.5156V22.1737H74.2064V21.5057C74.0194 21.9511 73.6237 22.1737 73.0194 22.1737H68.0124C66.8758 22.1737 66.3075 21.6063 66.3075 20.4714V11.7226H68.6167V20.2343C68.6167 20.5217 68.6527 20.7084 68.7246 20.7946C68.811 20.8664 68.998 20.9024 69.2858 20.9024H73.4726C73.7316 20.9024 73.9186 20.8521 74.0338 20.7515C74.1489 20.6366 74.2064 20.4426 74.2064 20.1697V11.7226Z" fill="white"/>
<path d="M88.5321 20.2343V13.6619C88.5321 13.389 88.4889 13.2094 88.4026 13.1232C88.3163 13.037 88.1364 12.9939 87.8631 12.9939H83.6762C83.4172 12.9939 83.2302 13.0514 83.1151 13.1663C83 13.2669 82.9424 13.4536 82.9424 13.7266V14.4377H82.9209V19.6525H82.9424V20.1697C82.9424 20.4426 83 20.6366 83.1151 20.7515C83.2302 20.8521 83.4172 20.9024 83.6762 20.9024H87.8631C88.1364 20.9024 88.3163 20.8664 88.4026 20.7946C88.4889 20.7084 88.5321 20.5217 88.5321 20.2343ZM84.1294 11.7226H89.1148C90.2515 11.7226 90.8198 12.29 90.8198 13.4249V20.4714C90.8198 21.6063 90.2515 22.1737 89.1148 22.1737H84.1294C83.482 22.1737 83.0791 21.9367 82.9209 21.4626V22.1737H80.6116V7.75757H82.9209V12.4337C83.0791 11.9596 83.482 11.7226 84.1294 11.7226Z" fill="white"/>
<path d="M97.6135 25.2121H95.4121V23.9407H96.8365C97.6422 23.9407 98.1818 23.6606 98.4552 23.1003L98.8868 22.1737H98.0667L93.5561 11.7226H95.9301L99.5558 20.6222L103.117 11.7226H105.448L100.462 23.1865C100.16 23.8905 99.8076 24.4004 99.4047 24.7165C99.0163 25.0469 98.4192 25.2121 97.6135 25.2121Z" fill="white"/>
<path d="M117.713 11.7226H122.698C123.835 11.7226 124.403 12.29 124.403 13.4249V22.1737H122.115V13.6619C122.115 13.389 122.072 13.2094 121.986 13.1232C121.899 13.037 121.72 12.9939 121.446 12.9939H117.259C117 12.9939 116.813 13.0514 116.698 13.1663C116.583 13.2669 116.526 13.4536 116.526 13.7266V14.4162H116.504V22.1737H114.195V11.7226H116.504V12.4337C116.662 11.9596 117.065 11.7226 117.713 11.7226Z" fill="white"/>
<path d="M130.42 16.1832H136.268V13.6619C136.268 13.389 136.225 13.2094 136.139 13.1232C136.053 13.037 135.873 12.9939 135.599 12.9939H131.089C130.801 12.9939 130.614 13.037 130.528 13.1232C130.456 13.2094 130.42 13.389 130.42 13.6619V16.1832ZM129.815 11.7226H136.829C137.966 11.7226 138.534 12.29 138.534 13.4249V17.4545H130.42V20.2343C130.42 20.5217 130.456 20.7084 130.528 20.7946C130.614 20.8664 130.801 20.9024 131.089 20.9024H135.556C135.83 20.9024 136.009 20.8664 136.096 20.7946C136.182 20.7084 136.225 20.5217 136.225 20.2343V19.1353H138.491V20.4714C138.491 21.6063 137.923 22.1737 136.786 22.1737H129.815C128.679 22.1737 128.11 21.6063 128.11 20.4714V13.4249C128.11 12.29 128.679 11.7226 129.815 11.7226Z" fill="white"/>
<path d="M156.922 11.7226H159.123L155.54 22.1737H152.519L150.037 13.5111L147.62 22.1737H144.598L140.973 11.7226H143.174L146.152 20.6653L148.785 11.7226H151.353L153.922 20.6653L156.922 11.7226Z" fill="white"/>
<path d="M168.998 20.2559V18.2734C168.998 18.0004 168.955 17.8209 168.869 17.7347C168.782 17.6485 168.603 17.6054 168.329 17.6054H163.409C162.272 17.6054 161.704 17.0379 161.704 15.903V13.4249C161.704 12.29 162.272 11.7226 163.409 11.7226H169.516C170.653 11.7226 171.221 12.29 171.221 13.4249V14.6316H168.977V13.6404C168.977 13.3531 168.933 13.1735 168.847 13.1017C168.775 13.0155 168.595 12.9724 168.308 12.9724H164.66C164.387 12.9724 164.207 13.0155 164.121 13.1017C164.034 13.1735 163.991 13.3531 163.991 13.6404V15.666C163.991 15.9533 164.034 16.1401 164.121 16.2263C164.207 16.2981 164.387 16.334 164.66 16.334H169.581C170.718 16.334 171.286 16.9015 171.286 18.0364V20.4714C171.286 21.6063 170.718 22.1737 169.581 22.1737H163.452C162.315 22.1737 161.747 21.6063 161.747 20.4714V19.2646H164.013V20.2559C164.013 20.5288 164.049 20.7084 164.121 20.7946C164.207 20.8808 164.394 20.9239 164.682 20.9239H168.329C168.603 20.9239 168.782 20.8808 168.869 20.7946C168.955 20.7084 168.998 20.5288 168.998 20.2559Z" fill="white"/>
<path d="M6.05764 0H35.1895L40.6311 10.5028L20.6002 32L0.53833 10.5028L6.05764 0Z" fill="white"/>
<path fill-rule="evenodd" clip-rule="evenodd" d="M25.2844 24.0976L25.2851 24.0968L25.4304 23.933L36.3593 11.5342L31.2866 1.83972H5.07292L0 11.5346L10.9754 23.9586L16.6589 30.5874V18.236L21.2662 15.3269L21.2774 15.3269L21.4901 15.3269C21.7875 15.3269 22.0286 15.5675 22.0286 15.8642V27.7695L23.6204 25.9743L23.6233 25.982L25.2844 24.0976ZM10.8318 19.133L3.8727 11.1765L7.10613 4.94297H29.2534L32.4868 11.1765L25.4304 19.2443V15.8642C25.4304 14.993 25.1459 14.1872 24.6652 13.5354C24.8816 13.1758 25.0451 12.7517 25.1627 12.3438C25.3335 11.7517 25.4304 11.1132 25.4304 10.5913C25.4304 8.29626 23.566 6.43575 21.2662 6.43575H10.8318V19.133ZM21.2706 11.9321H14.2335V9.83049H21.2662C21.6872 9.83049 22.0286 10.1711 22.0286 10.5913C22.0286 10.8319 21.9212 11.2064 21.7251 11.5206C21.5128 11.8606 21.3298 11.9313 21.2706 11.9321Z" fill="white"/>
<path fill-rule="evenodd" clip-rule="evenodd" d="M30.1338 24.0976L30.1345 24.0968L30.2797 23.933L41.2087 11.5342L36.1359 1.83972H9.92229L4.84937 11.5346L15.8247 23.9586L19.0829 27.6783V15.3269L24.1721 15.3269L24.1834 15.3269L24.3961 15.3269C24.6935 15.3269 24.4519 15.5675 24.4519 15.8642V30.5842L28.4698 25.9743L28.4727 25.982L30.1338 24.0976ZM15.6811 19.133L8.72207 11.1765L11.9555 4.94297H34.1027L37.3362 11.1765L30.2797 19.2443V15.8642C30.2797 14.993 29.9952 14.1872 29.5146 13.5354C29.731 13.1758 29.8945 12.7517 30.0121 12.3438C30.1828 11.7517 30.2797 11.1132 30.2797 10.5913C30.2797 8.29626 28.4154 6.43575 26.1155 6.43575H15.6811V19.133ZM26.1199 11.9321H19.0829V9.83049H26.1155C26.5366 9.83049 26.878 10.1711 26.878 10.5913C26.878 10.8319 26.7706 11.2064 26.5744 11.5206C26.3622 11.8606 26.1792 11.9313 26.1199 11.9321Z" fill="#FF0B54"/>
<path fill-rule="evenodd" clip-rule="evenodd" d="M27.7092 24.0976L27.7099 24.0968L27.8552 23.933L38.7841 11.5342L33.7114 1.83972H7.49773L2.4248 11.5346L13.4002 23.9586L16.6584 27.6783V15.3269L23.691 15.3269L23.7022 15.3269L23.9149 15.3269C24.2123 15.3269 24.4534 15.5675 24.4534 15.8642V27.7695L26.0452 25.9743L26.0481 25.982L27.7092 24.0976ZM13.2566 19.133L6.29751 11.1765L9.53094 4.94297H31.6782L34.9116 11.1765L27.8552 19.2443V15.8642C27.8552 14.993 27.5707 14.1872 27.09 13.5354C27.3064 13.1758 27.4699 12.7517 27.5875 12.3438C27.7583 11.7517 27.8552 11.1132 27.8552 10.5913C27.8552 8.29626 25.9908 6.43575 23.691 6.43575H13.2566V19.133ZM23.6954 11.9321H16.6584V9.83049H23.691C24.1121 9.83049 24.4534 10.1711 24.4534 10.5913C24.4534 10.8319 24.3461 11.2064 24.1499 11.5206C23.9376 11.8606 23.7546 11.9313 23.6954 11.9321Z" fill="black"/>
</svg>
