<svg width="63" height="49" viewBox="0 0 63 49" fill="none" xmlns="http://www.w3.org/2000/svg">
<path d="M9.5009 0.198242H53.1082L61.2536 15.9524L31.2696 48.1982L1.23907 15.9524L9.5009 0.198242Z" fill="black"/>
<path fill-rule="evenodd" clip-rule="evenodd" d="M38.2815 36.3449L38.2825 36.3437L38.4999 36.098L54.8594 17.4997L47.266 2.95801H8.02698L0.43335 17.5003L16.8623 36.1364L25.37 46.0795V27.5524L32.2666 23.1888L32.2834 23.1887L32.6018 23.1887C33.0469 23.1887 33.4078 23.5496 33.4078 23.9948V41.8526L35.7906 39.1598L35.795 39.1714L38.2815 36.3449ZM16.6474 28.898L6.23038 16.9632L11.0705 7.61289H44.2225L49.0627 16.9632L38.4999 29.0649V23.9948C38.4999 22.6879 38.0741 21.4792 37.3546 20.5015C37.6785 19.9621 37.9232 19.3259 38.0992 18.7142C38.3549 17.826 38.4999 16.8682 38.4999 16.0854C38.4999 12.6428 35.7092 9.85205 32.2666 9.85205H16.6474V28.898ZM32.2731 18.0966H21.7395V14.9442H32.2666C32.8969 14.9442 33.4078 15.4551 33.4078 16.0854C33.4078 16.4463 33.2471 17.008 32.9535 17.4794C32.6357 17.9893 32.3618 18.0954 32.2731 18.0966Z" fill="black"/>
<path fill-rule="evenodd" clip-rule="evenodd" d="M45.5406 36.3449L45.5417 36.3437L45.7591 36.098L62.1185 17.4997L54.5252 2.95801H15.2861L7.6925 17.5003L24.1215 36.1364L28.9986 41.7159V23.1888L36.6166 23.1888L36.6334 23.1887L36.9518 23.1887C37.397 23.1887 37.0355 23.5496 37.0355 23.9948V46.0748L43.0497 39.1598L43.0541 39.1714L45.5406 36.3449ZM23.9065 28.898L13.4895 16.9632L18.3296 7.61289H51.4817L56.3218 16.9632L45.7591 29.0649V23.9948C45.7591 22.6879 45.3332 21.4792 44.6137 20.5015C44.9377 19.9621 45.1824 19.3259 45.3584 18.7142C45.614 17.826 45.7591 16.8682 45.7591 16.0854C45.7591 12.6428 42.9683 9.85205 39.5257 9.85205H23.9065V28.898ZM39.5323 18.0966H28.9986V14.9442H39.5257C40.156 14.9442 40.667 15.4551 40.667 16.0854C40.667 16.4463 40.5063 17.008 40.2126 17.4794C39.8949 17.9893 39.6209 18.0954 39.5323 18.0966Z" fill="#FF0B54"/>
<path fill-rule="evenodd" clip-rule="evenodd" d="M41.911 36.3449L41.9121 36.3437L42.1295 36.098L58.4889 17.4997L50.8956 2.95801H11.6566L4.06293 17.5003L20.4919 36.1364L25.369 41.7159V23.1888H35.8961L35.913 23.1887L36.2314 23.1888C36.6765 23.1888 37.0374 23.5496 37.0374 23.9948V41.8526L39.4202 39.1598L39.4246 39.1714L41.911 36.3449ZM20.2769 28.898L9.85995 16.9632L14.7001 7.61289H47.8521L52.6922 16.9632L42.1295 29.0649V23.9948C42.1295 22.6879 41.7037 21.4792 40.9841 20.5015C41.3081 19.9621 41.5528 19.3259 41.7288 18.7142C41.9844 17.826 42.1295 16.8682 42.1295 16.0854C42.1295 12.6428 39.3387 9.85205 35.8961 9.85205H20.2769V28.898ZM35.9027 18.0966H25.369V14.9442H35.8961C36.5264 14.9442 37.0374 15.4551 37.0374 16.0854C37.0374 16.4463 36.8767 17.008 36.583 17.4794C36.2653 17.9893 35.9914 18.0954 35.9027 18.0966Z" fill="white"/>
</svg>
