<svg width="172" height="32" viewBox="0 0 172 32" fill="none" xmlns="http://www.w3.org/2000/svg">
<path d="M53.3143 10.2836V16.3372H59.1318C59.4149 16.3372 59.5918 16.2941 59.6626 16.208C59.7475 16.1218 59.79 15.9423 59.79 15.6694V10.9514C59.79 10.6642 59.7475 10.4846 59.6626 10.4128C59.5918 10.3267 59.4149 10.2836 59.1318 10.2836H53.3143ZM53.3143 17.6083V22.4124H51V9.01253H60.4269C61.5451 9.01253 62.1042 9.57984 62.1042 10.7144V15.9064C62.1042 17.041 61.5451 17.6083 60.4269 17.6083H59.2167L62.2104 22.4124H59.79L56.8812 17.6083H53.3143Z" fill="black"/>
<path d="M73.5133 11.964H75.7851V22.4124H73.5133V21.7446C73.3293 22.1898 72.9401 22.4124 72.3456 22.4124H67.4198C66.3016 22.4124 65.7425 21.8451 65.7425 20.7105V11.964H68.0143V20.4735C68.0143 20.7608 68.0497 20.9475 68.1204 21.0336C68.2054 21.1055 68.3894 21.1414 68.6725 21.1414H72.7914C73.0462 21.1414 73.2302 21.0911 73.3435 20.9906C73.4567 20.8757 73.5133 20.6818 73.5133 20.4089V11.964Z" fill="black"/>
<path d="M87.6067 20.4735V13.9028C87.6067 13.63 87.5643 13.4504 87.4793 13.3643C87.3944 13.2781 87.2175 13.235 86.9485 13.235H82.8296C82.5748 13.235 82.3908 13.2924 82.2776 13.4073C82.1643 13.5079 82.1077 13.6946 82.1077 13.9675V14.6784H82.0865V19.8919H82.1077V20.4089C82.1077 20.6818 82.1643 20.8757 82.2776 20.9906C82.3908 21.0911 82.5748 21.1414 82.8296 21.1414H86.9485C87.2175 21.1414 87.3944 21.1055 87.4793 21.0336C87.5643 20.9475 87.6067 20.7608 87.6067 20.4735ZM83.2754 11.964H88.18C89.2982 11.964 89.8573 12.5313 89.8573 13.6659V20.7105C89.8573 21.8451 89.2982 22.4124 88.18 22.4124H83.2754C82.6385 22.4124 82.2422 22.1754 82.0865 21.7015V22.4124H79.8147V8H82.0865V12.6749C82.2422 12.2009 82.6385 11.964 83.2754 11.964Z" fill="black"/>
<path d="M96.5408 25.45H94.3752V24.179H95.7765C96.5691 24.179 97.0999 23.8989 97.3689 23.3388L97.7935 22.4124H96.9867L92.5493 11.964H94.8848L98.4517 20.8613L101.955 11.964H104.248L99.3434 23.4249C99.0462 24.1287 98.6994 24.6385 98.3031 24.9545C97.9209 25.2848 97.3335 25.45 96.5408 25.45Z" fill="black"/>
<path d="M122.28 9.01253H124.425V22.4124H122.195L115.21 11.5762V22.4124H113.066V9.01253H115.38L122.28 19.7626V9.01253Z" fill="black"/>
<path d="M130.723 16.4234H136.476V13.9028C136.476 13.63 136.434 13.4504 136.349 13.3643C136.264 13.2781 136.087 13.235 135.818 13.235H131.381C131.098 13.235 130.914 13.2781 130.829 13.3643C130.758 13.4504 130.723 13.63 130.723 13.9028V16.4234ZM130.128 11.964H137.028C138.147 11.964 138.706 12.5313 138.706 13.6659V17.6944H130.723V20.4735C130.723 20.7608 130.758 20.9475 130.829 21.0336C130.914 21.1055 131.098 21.1414 131.381 21.1414H135.776C136.045 21.1414 136.222 21.1055 136.307 21.0336C136.392 20.9475 136.434 20.7608 136.434 20.4735V19.3748H138.663V20.7105C138.663 21.8451 138.104 22.4124 136.986 22.4124H130.128C129.01 22.4124 128.451 21.8451 128.451 20.7105V13.6659C128.451 12.5313 129.01 11.964 130.128 11.964Z" fill="black"/>
<path d="M156.795 11.964H158.96L155.436 22.4124H152.463L150.022 13.752L147.644 22.4124H144.671L141.104 11.964H143.27L146.2 20.9044L148.79 11.964H151.317L153.844 20.9044L156.795 11.964Z" fill="black"/>
<path d="M168.676 20.4951V18.5131C168.676 18.2402 168.633 18.0607 168.548 17.9745C168.463 17.8883 168.286 17.8452 168.017 17.8452H163.177C162.058 17.8452 161.499 17.2779 161.499 16.1433V13.6659C161.499 12.5313 162.058 11.964 163.177 11.964H169.185C170.303 11.964 170.862 12.5313 170.862 13.6659V14.8723H168.654V13.8813C168.654 13.5941 168.612 13.4145 168.527 13.3427C168.456 13.2565 168.279 13.2135 167.996 13.2135H164.408C164.139 13.2135 163.962 13.2565 163.877 13.3427C163.792 13.4145 163.75 13.5941 163.75 13.8813V15.9064C163.75 16.1936 163.792 16.3803 163.877 16.4665C163.962 16.5383 164.139 16.5742 164.408 16.5742H169.249C170.367 16.5742 170.926 17.1415 170.926 18.2761V20.7105C170.926 21.8451 170.367 22.4124 169.249 22.4124H163.219C162.101 22.4124 161.542 21.8451 161.542 20.7105V19.5041H163.771V20.4951C163.771 20.7679 163.806 20.9475 163.877 21.0336C163.962 21.1198 164.146 21.1629 164.429 21.1629H168.017C168.286 21.1629 168.463 21.1198 168.548 21.0336C168.633 20.9475 168.676 20.7679 168.676 20.4951Z" fill="black"/>
<path d="M6.0574 0H35.1892L40.6308 10.5028L20.6 32L0.538086 10.5028L6.0574 0Z" fill="black"/>
<path fill-rule="evenodd" clip-rule="evenodd" d="M25.2844 24.0976L25.2851 24.0968L25.4304 23.933L36.3593 11.5342L31.2866 1.83972H5.07292L0 11.5346L10.9754 23.9586L16.6589 30.5874V18.236L21.2662 15.3269L21.2774 15.3269L21.4901 15.3269C21.7875 15.3269 22.0286 15.5675 22.0286 15.8642V27.7695L23.6204 25.9743L23.6233 25.982L25.2844 24.0976ZM10.8318 19.133L3.8727 11.1765L7.10613 4.94297H29.2534L32.4868 11.1765L25.4304 19.2443V15.8642C25.4304 14.993 25.1459 14.1872 24.6652 13.5354C24.8816 13.1758 25.0451 12.7517 25.1627 12.3438C25.3335 11.7517 25.4304 11.1132 25.4304 10.5913C25.4304 8.29626 23.566 6.43575 21.2662 6.43575H10.8318V19.133ZM21.2706 11.9321H14.2335V9.83049H21.2662C21.6872 9.83049 22.0286 10.1711 22.0286 10.5913C22.0286 10.8319 21.9212 11.2064 21.7251 11.5206C21.5128 11.8606 21.3298 11.9313 21.2706 11.9321Z" fill="black"/>
<path fill-rule="evenodd" clip-rule="evenodd" d="M30.134 24.0976L30.1347 24.0968L30.28 23.933L41.2089 11.5342L36.1362 1.83972H9.92253L4.84961 11.5346L15.825 23.9586L19.0832 27.6783V15.3269L24.1724 15.3269L24.1836 15.3269L24.3963 15.3269C24.6937 15.3269 24.4522 15.5675 24.4522 15.8642V30.5842L28.47 25.9743L28.4729 25.982L30.134 24.0976ZM15.6814 19.133L8.72231 11.1765L11.9557 4.94297H34.103L37.3364 11.1765L30.28 19.2443V15.8642C30.28 14.993 29.9955 14.1872 29.5148 13.5354C29.7312 13.1758 29.8947 12.7517 30.0123 12.3438C30.1831 11.7517 30.28 11.1132 30.28 10.5913C30.28 8.29626 28.4156 6.43575 26.1158 6.43575H15.6814V19.133ZM26.1202 11.9321H19.0832V9.83049H26.1158C26.5369 9.83049 26.8782 10.1711 26.8782 10.5913C26.8782 10.8319 26.7709 11.2064 26.5747 11.5206C26.3624 11.8606 26.1794 11.9313 26.1202 11.9321Z" fill="#FF0B54"/>
<path fill-rule="evenodd" clip-rule="evenodd" d="M27.7092 24.0976L27.7099 24.0968L27.8552 23.933L38.7841 11.5342L33.7114 1.83972H7.49773L2.4248 11.5346L13.4002 23.9586L16.6584 27.6783V15.3269L23.691 15.3269L23.7022 15.3269L23.9149 15.3269C24.2123 15.3269 24.4534 15.5675 24.4534 15.8642V27.7695L26.0452 25.9743L26.0481 25.982L27.7092 24.0976ZM13.2566 19.133L6.29751 11.1765L9.53094 4.94297H31.6782L34.9116 11.1765L27.8552 19.2443V15.8642C27.8552 14.993 27.5707 14.1872 27.09 13.5354C27.3064 13.1758 27.4699 12.7517 27.5875 12.3438C27.7583 11.7517 27.8552 11.1132 27.8552 10.5913C27.8552 8.29626 25.9908 6.43575 23.691 6.43575H13.2566V19.133ZM23.6954 11.9321H16.6584V9.83049H23.691C24.1121 9.83049 24.4534 10.1711 24.4534 10.5913C24.4534 10.8319 24.3461 11.2064 24.1499 11.5206C23.9376 11.8606 23.7546 11.9313 23.6954 11.9321Z" fill="white"/>
</svg>
