<svg width="588" height="107" viewBox="0 0 588 107" fill="none" xmlns="http://www.w3.org/2000/svg">
<path d="M181.331 31.8519V52.6667H201.616C202.603 52.6667 203.22 52.5185 203.467 52.2222C203.763 51.9259 203.911 51.3086 203.911 50.3704V34.1482C203.911 33.1605 203.763 32.5432 203.467 32.2963C203.22 32 202.603 31.8519 201.616 31.8519H181.331ZM181.331 57.037V73.5556H173.261V27.4815H206.132C210.031 27.4815 211.98 29.4321 211.98 33.3333V51.1852C211.98 55.0864 210.031 57.037 206.132 57.037H201.912L212.351 73.5556H203.911L193.768 57.037H181.331Z" fill="black"/>
<path d="M251.763 37.6296H259.685V73.5556H251.763V71.2593C251.121 72.7901 249.764 73.5556 247.691 73.5556H230.515C226.616 73.5556 224.667 71.6049 224.667 67.7037V37.6296H232.588V66.8889C232.588 67.8765 232.712 68.5185 232.958 68.8148C233.255 69.0617 233.896 69.1852 234.883 69.1852H249.246C250.134 69.1852 250.776 69.0123 251.171 68.6667C251.566 68.2716 251.763 67.6049 251.763 66.6667V37.6296Z" fill="black"/>
<path d="M300.906 66.8889V44.2963C300.906 43.358 300.758 42.7407 300.461 42.4444C300.165 42.1481 299.548 42 298.611 42H284.248C283.36 42 282.718 42.1975 282.323 42.5926C281.928 42.9383 281.731 43.5802 281.731 44.5185V46.963H281.657V64.8889H281.731V66.6667C281.731 67.6049 281.928 68.2716 282.323 68.6667C282.718 69.0123 283.36 69.1852 284.248 69.1852H298.611C299.548 69.1852 300.165 69.0617 300.461 68.8148C300.758 68.5185 300.906 67.8765 300.906 66.8889ZM285.803 37.6296H302.905C306.804 37.6296 308.753 39.5802 308.753 43.4815V67.7037C308.753 71.6049 306.804 73.5556 302.905 73.5556H285.803C283.582 73.5556 282.2 72.7407 281.657 71.1111V73.5556H273.735V24H281.657V40.0741C282.2 38.4444 283.582 37.6296 285.803 37.6296Z" fill="black"/>
<path d="M332.058 84H324.507V79.6296H329.393C332.157 79.6296 334.008 78.6667 334.945 76.7407L336.426 73.5556H333.613L318.14 37.6296H326.284L338.721 68.2222L350.937 37.6296H358.932L341.831 77.037C340.794 79.4568 339.585 81.2099 338.203 82.2963C336.87 83.4321 334.822 84 332.058 84Z" fill="black"/>
<path d="M401.006 37.6296H418.108C422.007 37.6296 423.956 39.5802 423.956 43.4815V73.5556H416.109V44.2963C416.109 43.358 415.961 42.7407 415.665 42.4444C415.368 42.1481 414.751 42 413.814 42H399.451C398.563 42 397.921 42.1975 397.526 42.5926C397.132 42.9383 396.934 43.5802 396.934 44.5185V46.8889H396.86V73.5556H388.938V37.6296H396.86V40.0741C397.403 38.4444 398.785 37.6296 401.006 37.6296Z" fill="black"/>
<path d="M444.596 52.963H464.659V44.2963C464.659 43.358 464.511 42.7407 464.215 42.4444C463.919 42.1481 463.302 42 462.364 42H446.891C445.904 42 445.262 42.1481 444.966 42.4444C444.719 42.7407 444.596 43.358 444.596 44.2963V52.963ZM442.523 37.6296H466.584C470.483 37.6296 472.433 39.5802 472.433 43.4815V57.3333H444.596V66.8889C444.596 67.8765 444.719 68.5185 444.966 68.8148C445.262 69.0617 445.904 69.1852 446.891 69.1852H462.216C463.154 69.1852 463.771 69.0617 464.067 68.8148C464.363 68.5185 464.511 67.8765 464.511 66.8889V63.1111H472.285V67.7037C472.285 71.6049 470.335 73.5556 466.436 73.5556H442.523C438.624 73.5556 436.674 71.6049 436.674 67.7037V43.4815C436.674 39.5802 438.624 37.6296 442.523 37.6296Z" fill="black"/>
<path d="M535.507 37.6296H543.059L530.769 73.5556H520.405L511.891 43.7778L503.599 73.5556H493.234L480.797 37.6296H488.348L498.565 68.3704L507.597 37.6296H516.407L525.217 68.3704L535.507 37.6296Z" fill="black"/>
<path d="M576.935 66.963V60.1481C576.935 59.2099 576.787 58.5926 576.491 58.2963C576.195 58 575.578 57.8519 574.64 57.8519H557.76C553.861 57.8519 551.912 55.9012 551.912 52V43.4815C551.912 39.5802 553.861 37.6296 557.76 37.6296H578.712C582.611 37.6296 584.56 39.5802 584.56 43.4815V47.6296H576.861V44.2222C576.861 43.2346 576.713 42.6173 576.417 42.3704C576.17 42.0741 575.553 41.9259 574.566 41.9259H562.054C561.117 41.9259 560.5 42.0741 560.203 42.3704C559.907 42.6173 559.759 43.2346 559.759 44.2222V51.1852C559.759 52.1728 559.907 52.8148 560.203 53.1111C560.5 53.358 561.117 53.4815 562.054 53.4815H578.934C582.833 53.4815 584.783 55.4321 584.783 59.3333V67.7037C584.783 71.6049 582.833 73.5556 578.934 73.5556H557.908C554.009 73.5556 552.06 71.6049 552.06 67.7037V63.5556H559.833V66.963C559.833 67.9012 559.957 68.5185 560.203 68.8148C560.5 69.1111 561.141 69.2593 562.128 69.2593H574.64C575.578 69.2593 576.195 69.1111 576.491 68.8148C576.787 68.5185 576.935 67.9012 576.935 66.963Z" fill="black"/>
<path d="M20.1253 0H116.875L134 32.8723L68.5 107L3 32.8723L20.1253 0Z" fill="black"/>
<path fill-rule="evenodd" clip-rule="evenodd" d="M87.9628 79.7506L87.9652 79.7479L88.465 79.1831V79.1798L126.072 36.4288L108.617 3H18.4129L0.956482 36.4301L38.7239 79.2714L49.9356 92.0977V49.507L74.1356 49.507L74.1383 49.507L74.1742 49.507L74.9062 49.507C75.9295 49.507 76.7591 50.3366 76.7591 51.3599V92.412L82.2367 86.2218L82.2468 86.2484L87.9628 79.7506ZM38.2297 62.6315L14.2828 35.1956L25.4094 13.7008H101.62L112.747 35.1956L88.465 63.0153V51.3599C88.465 48.3556 87.486 45.5769 85.832 43.3296C86.5767 42.0895 87.1392 40.627 87.5439 39.2208C88.1315 37.1789 88.465 34.9772 88.465 33.1776C88.465 25.2637 82.0495 18.8482 74.1356 18.8482H38.2297V62.6315ZM74.1507 37.8011H49.9356V30.5541H74.1356C75.5845 30.5541 76.7591 31.7287 76.7591 33.1776C76.7591 34.0072 76.3897 35.2986 75.7146 36.3821C74.9842 37.5544 74.3545 37.7983 74.1507 37.8011Z" fill="black"/>
<path fill-rule="evenodd" clip-rule="evenodd" d="M97.9628 79.7506L97.9652 79.7479L98.465 79.1831V79.1798L136.072 36.4288L118.617 3H28.4129L10.9565 36.4301L48.7239 79.2714L59.9356 92.0977V49.507L84.1356 49.507L84.1383 49.507L84.1742 49.507L84.9062 49.507C85.9295 49.507 86.7591 50.3366 86.7591 51.3599V92.412L92.2367 86.2218L92.2468 86.2484L97.9628 79.7506ZM48.2297 62.6315L24.2828 35.1956L35.4094 13.7008H111.62L122.747 35.1956L98.465 63.0153V51.3599C98.465 48.3556 97.486 45.5769 95.832 43.3296C96.5767 42.0895 97.1392 40.627 97.5439 39.2208C98.1315 37.1789 98.465 34.9772 98.465 33.1776C98.465 25.2637 92.0495 18.8482 84.1356 18.8482H48.2297V62.6315ZM84.1507 37.8011H59.9356V30.5541H84.1356C85.5845 30.5541 86.7591 31.7287 86.7591 33.1776C86.7591 34.0072 86.3897 35.2986 85.7146 36.3821C84.9842 37.5544 84.3545 37.7983 84.1507 37.8011Z" fill="#FF0B54"/>
<path fill-rule="evenodd" clip-rule="evenodd" d="M92.9628 79.7506L92.9652 79.7479L93.465 79.1831V79.1798L131.072 36.4288L113.617 3H23.4129L5.95648 36.4301L43.7239 79.2714L54.9356 92.0977V49.507L79.1356 49.507L79.1383 49.507L79.1742 49.507L79.9062 49.507C80.9295 49.507 81.7591 50.3366 81.7591 51.3599V92.412L87.2367 86.2218L87.2468 86.2484L92.9628 79.7506ZM43.2297 62.6315L19.2828 35.1956L30.4094 13.7008H106.62L117.747 35.1956L93.465 63.0153V51.3599C93.465 48.3556 92.486 45.5769 90.832 43.3296C91.5767 42.0895 92.1392 40.627 92.5439 39.2208C93.1315 37.1789 93.465 34.9772 93.465 33.1776C93.465 25.2637 87.0495 18.8482 79.1356 18.8482H43.2297V62.6315ZM79.1507 37.8011H54.9356V30.5541H79.1356C80.5845 30.5541 81.7591 31.7287 81.7591 33.1776C81.7591 34.0072 81.3897 35.2986 80.7146 36.3821C79.9842 37.5544 79.3545 37.7983 79.1507 37.8011Z" fill="white"/>
</svg>
