<?xml version="1.0" encoding="UTF-8" standalone="no"?>
<svg
   xmlns:dc="http://purl.org/dc/elements/1.1/"
   xmlns:cc="http://creativecommons.org/ns#"
   xmlns:rdf="http://www.w3.org/1999/02/22-rdf-syntax-ns#"
   xmlns:svg="http://www.w3.org/2000/svg"
   xmlns="http://www.w3.org/2000/svg"
   xmlns:sodipodi="http://sodipodi.sourceforge.net/DTD/sodipodi-0.dtd"
   xmlns:inkscape="http://www.inkscape.org/namespaces/inkscape"
   width="172"
   height="172"
   viewBox="0 0 172 172"
   fill="none"
   version="1.1"
   id="svg26"
   sodipodi:docname="logo-black.svg"
   inkscape:version="1.0.2 (e86c870879, 2021-01-15, custom)">
  <metadata
     id="metadata32">
    <rdf:RDF>
      <cc:Work
         rdf:about="">
        <dc:format>image/svg+xml</dc:format>
        <dc:type
           rdf:resource="http://purl.org/dc/dcmitype/StillImage" />
        <dc:title></dc:title>
      </cc:Work>
    </rdf:RDF>
  </metadata>
  <defs
     id="defs30" />
  <sodipodi:namedview
     pagecolor="#ffffff"
     bordercolor="#666666"
     borderopacity="1"
     objecttolerance="10"
     gridtolerance="10"
     guidetolerance="10"
     inkscape:pageopacity="0"
     inkscape:pageshadow="2"
     inkscape:window-width="640"
     inkscape:window-height="480"
     id="namedview28"
     showgrid="false"
     inkscape:zoom="2.9147599"
     inkscape:cx="85.003144"
     inkscape:cy="83.568483"
     inkscape:current-layer="svg26" />
  <g
     id="g46"
     transform="translate(0.537,70)">
    <path
       d="m 53.3143,10.2836 v 6.0536 h 5.8175 c 0.2831,0 0.46,-0.0431 0.5308,-0.1292 0.0849,-0.0862 0.1274,-0.2657 0.1274,-0.5386 v -4.718 c 0,-0.2872 -0.0425,-0.4668 -0.1274,-0.5386 -0.0708,-0.0861 -0.2477,-0.1292 -0.5308,-0.1292 z m 0,7.3247 v 4.8041 H 51 V 9.01253 h 9.4269 c 1.1182,0 1.6773,0.56731 1.6773,1.70187 v 5.192 c 0,1.1346 -0.5591,1.7019 -1.6773,1.7019 h -1.2102 l 2.9937,4.8041 H 59.79 l -2.9088,-4.8041 z"
       fill="#000000"
       id="path2" />
    <path
       d="m 73.5133,11.964 h 2.2718 v 10.4484 h -2.2718 v -0.6678 c -0.184,0.4452 -0.5732,0.6678 -1.1677,0.6678 h -4.9258 c -1.1182,0 -1.6773,-0.5673 -1.6773,-1.7019 V 11.964 h 2.2718 v 8.5095 c 0,0.2873 0.0354,0.474 0.1061,0.5601 0.085,0.0719 0.269,0.1078 0.5521,0.1078 h 4.1189 c 0.2548,0 0.4388,-0.0503 0.5521,-0.1508 0.1132,-0.1149 0.1698,-0.3088 0.1698,-0.5817 z"
       fill="#000000"
       id="path4" />
    <path
       d="m 87.6067,20.4735 v -6.5707 c 0,-0.2728 -0.0424,-0.4524 -0.1274,-0.5385 -0.0849,-0.0862 -0.2618,-0.1293 -0.5308,-0.1293 h -4.1189 c -0.2548,0 -0.4388,0.0574 -0.552,0.1723 -0.1133,0.1006 -0.1699,0.2873 -0.1699,0.5602 v 0.7109 h -0.0212 v 5.2135 h 0.0212 v 0.517 c 0,0.2729 0.0566,0.4668 0.1699,0.5817 0.1132,0.1005 0.2972,0.1508 0.552,0.1508 h 4.1189 c 0.269,0 0.4459,-0.0359 0.5308,-0.1078 0.085,-0.0861 0.1274,-0.2728 0.1274,-0.5601 z M 83.2754,11.964 H 88.18 c 1.1182,0 1.6773,0.5673 1.6773,1.7019 v 7.0446 c 0,1.1346 -0.5591,1.7019 -1.6773,1.7019 h -4.9046 c -0.6369,0 -1.0332,-0.237 -1.1889,-0.7109 v 0.7109 H 79.8147 V 8 h 2.2718 v 4.6749 c 0.1557,-0.474 0.552,-0.7109 1.1889,-0.7109 z"
       fill="#000000"
       id="path6" />
    <path
       d="m 96.5408,25.45 h -2.1656 v -1.271 h 1.4013 c 0.7926,0 1.3234,-0.2801 1.5924,-0.8402 l 0.4246,-0.9264 H 96.9867 L 92.5493,11.964 h 2.3355 l 3.5669,8.8973 3.5033,-8.8973 h 2.293 l -4.9046,11.4609 c -0.2972,0.7038 -0.644,1.2136 -1.0403,1.5296 -0.3822,0.3303 -0.9696,0.4955 -1.7623,0.4955 z"
       fill="#000000"
       id="path8" />
    <path
       d="m 122.28,9.01253 h 2.145 V 22.4124 h -2.23 L 115.21,11.5762 v 10.8362 h -2.144 V 9.01253 h 2.314 l 6.9,10.75007 z"
       fill="#000000"
       id="path10" />
    <path
       d="m 130.723,16.4234 h 5.753 v -2.5206 c 0,-0.2728 -0.042,-0.4524 -0.127,-0.5385 -0.085,-0.0862 -0.262,-0.1293 -0.531,-0.1293 h -4.437 c -0.283,0 -0.467,0.0431 -0.552,0.1293 -0.071,0.0861 -0.106,0.2657 -0.106,0.5385 z m -0.595,-4.4594 h 6.9 c 1.119,0 1.678,0.5673 1.678,1.7019 v 4.0285 h -7.983 v 2.7791 c 0,0.2873 0.035,0.474 0.106,0.5601 0.085,0.0719 0.269,0.1078 0.552,0.1078 h 4.395 c 0.269,0 0.446,-0.0359 0.531,-0.1078 0.085,-0.0861 0.127,-0.2728 0.127,-0.5601 v -1.0987 h 2.229 v 1.3357 c 0,1.1346 -0.559,1.7019 -1.677,1.7019 h -6.858 c -1.118,0 -1.677,-0.5673 -1.677,-1.7019 v -7.0446 c 0,-1.1346 0.559,-1.7019 1.677,-1.7019 z"
       fill="#000000"
       id="path12" />
    <path
       d="m 156.795,11.964 h 2.165 l -3.524,10.4484 h -2.973 l -2.441,-8.6604 -2.378,8.6604 h -2.973 L 141.104,11.964 h 2.166 l 2.93,8.9404 2.59,-8.9404 h 2.527 l 2.527,8.9404 z"
       fill="#000000"
       id="path14" />
    <path
       d="m 168.676,20.4951 v -1.982 c 0,-0.2729 -0.043,-0.4524 -0.128,-0.5386 -0.085,-0.0862 -0.262,-0.1293 -0.531,-0.1293 h -4.84 c -1.119,0 -1.678,-0.5673 -1.678,-1.7019 v -2.4774 c 0,-1.1346 0.559,-1.7019 1.678,-1.7019 h 6.008 c 1.118,0 1.677,0.5673 1.677,1.7019 v 1.2064 h -2.208 v -0.991 c 0,-0.2872 -0.042,-0.4668 -0.127,-0.5386 -0.071,-0.0862 -0.248,-0.1292 -0.531,-0.1292 h -3.588 c -0.269,0 -0.446,0.043 -0.531,0.1292 -0.085,0.0718 -0.127,0.2514 -0.127,0.5386 v 2.0251 c 0,0.2872 0.042,0.4739 0.127,0.5601 0.085,0.0718 0.262,0.1077 0.531,0.1077 h 4.841 c 1.118,0 1.677,0.5673 1.677,1.7019 v 2.4344 c 0,1.1346 -0.559,1.7019 -1.677,1.7019 h -6.03 c -1.118,0 -1.677,-0.5673 -1.677,-1.7019 v -1.2064 h 2.229 v 0.991 c 0,0.2728 0.035,0.4524 0.106,0.5385 0.085,0.0862 0.269,0.1293 0.552,0.1293 h 3.588 c 0.269,0 0.446,-0.0431 0.531,-0.1293 0.085,-0.0861 0.128,-0.2657 0.128,-0.5385 z"
       fill="#000000"
       id="path16" />
    <path
       d="M 6.0574,0 H 35.1892 L 40.6308,10.5028 20.6,32 0.538086,10.5028 Z"
       fill="#000000"
       id="path18" />
    <path
       fill-rule="evenodd"
       clip-rule="evenodd"
       d="m 25.2844,24.0976 7e-4,-8e-4 L 25.4304,23.933 36.3593,11.5342 31.2866,1.83972 H 5.07292 L 0,11.5346 l 10.9754,12.424 5.6835,6.6288 V 18.236 l 4.6073,-2.9091 h 0.0112 0.2127 c 0.2974,0 0.5385,0.2406 0.5385,0.5373 v 11.9053 l 1.5918,-1.7952 0.0029,0.0077 z M 10.8318,19.133 3.8727,11.1765 7.10613,4.94297 H 29.2534 l 3.2334,6.23353 -7.0564,8.0678 v -3.3801 c 0,-0.8712 -0.2845,-1.677 -0.7652,-2.3288 0.2164,-0.3596 0.3799,-0.7837 0.4975,-1.1916 0.1708,-0.5921 0.2677,-1.2306 0.2677,-1.7525 0,-2.29504 -1.8644,-4.15555 -4.1642,-4.15555 H 10.8318 Z M 21.2706,11.9321 H 14.2335 V 9.83049 h 7.0327 c 0.421,0 0.7624,0.34061 0.7624,0.76081 0,0.2406 -0.1074,0.6151 -0.3035,0.9293 -0.2123,0.34 -0.3953,0.4107 -0.4545,0.4115 z"
       fill="#000000"
       id="path20" />
    <path
       fill-rule="evenodd"
       clip-rule="evenodd"
       d="m 30.134,24.0976 7e-4,-8e-4 L 30.28,23.933 41.2089,11.5342 36.1362,1.83972 H 9.92253 L 4.84961,11.5346 15.825,23.9586 19.0832,27.6783 V 15.3269 h 5.0892 0.0112 0.2127 c 0.2974,0 0.0559,0.2406 0.0559,0.5373 v 14.72 L 28.47,25.9743 28.4729,25.982 Z M 15.6814,19.133 8.72231,11.1765 11.9557,4.94297 H 34.103 l 3.2334,6.23353 -7.0564,8.0678 v -3.3801 c 0,-0.8712 -0.2845,-1.677 -0.7652,-2.3288 0.2164,-0.3596 0.3799,-0.7837 0.4975,-1.1916 0.1708,-0.5921 0.2677,-1.2306 0.2677,-1.7525 0,-2.29504 -1.8644,-4.15555 -4.1642,-4.15555 H 15.6814 Z m 10.4388,-7.2009 h -7.037 V 9.83049 h 7.0326 c 0.4211,0 0.7624,0.34061 0.7624,0.76081 0,0.2406 -0.1073,0.6151 -0.3035,0.9293 -0.2123,0.34 -0.3953,0.4107 -0.4545,0.4115 z"
       fill="#ff0b54"
       id="path22" />
    <path
       fill-rule="evenodd"
       clip-rule="evenodd"
       d="m 27.7092,24.0976 7e-4,-8e-4 L 27.8552,23.933 38.7841,11.5342 33.7114,1.83972 H 7.49773 l -5.07293,9.69488 10.9754,12.424 3.2582,3.7197 V 15.3269 h 7.0326 0.0112 0.2127 c 0.2974,0 0.5385,0.2406 0.5385,0.5373 v 11.9053 l 1.5918,-1.7952 0.0029,0.0077 z M 13.2566,19.133 6.29751,11.1765 9.53094,4.94297 H 31.6782 l 3.2334,6.23353 -7.0564,8.0678 v -3.3801 c 0,-0.8712 -0.2845,-1.677 -0.7652,-2.3288 0.2164,-0.3596 0.3799,-0.7837 0.4975,-1.1916 0.1708,-0.5921 0.2677,-1.2306 0.2677,-1.7525 0,-2.29504 -1.8644,-4.15555 -4.1642,-4.15555 H 13.2566 Z m 10.4388,-7.2009 h -7.037 V 9.83049 h 7.0326 c 0.4211,0 0.7624,0.34061 0.7624,0.76081 0,0.2406 -0.1073,0.6151 -0.3035,0.9293 -0.2123,0.34 -0.3953,0.4107 -0.4545,0.4115 z"
       fill="#ffffff"
       id="path24" />
  </g>
</svg>
