<?xml version="1.0" encoding="UTF-8" standalone="no"?>
<svg
   xmlns:dc="http://purl.org/dc/elements/1.1/"
   xmlns:cc="http://creativecommons.org/ns#"
   xmlns:rdf="http://www.w3.org/1999/02/22-rdf-syntax-ns#"
   xmlns:svg="http://www.w3.org/2000/svg"
   xmlns="http://www.w3.org/2000/svg"
   xmlns:xlink="http://www.w3.org/1999/xlink"
   xmlns:sodipodi="http://sodipodi.sourceforge.net/DTD/sodipodi-0.dtd"
   xmlns:inkscape="http://www.inkscape.org/namespaces/inkscape"
   id="Capa_1"
   enable-background="new 0 0 512 512"
   height="512"
   viewBox="0 0 512 512"
   width="512"
   version="1.1"
   sodipodi:docname="blog.svg"
   inkscape:version="1.0.2 (e86c870879, 2021-01-15, custom)">
  <metadata
     id="metadata35">
    <rdf:RDF>
      <cc:Work
         rdf:about="">
        <dc:format>image/svg+xml</dc:format>
        <dc:type
           rdf:resource="http://purl.org/dc/dcmitype/StillImage" />
      </cc:Work>
    </rdf:RDF>
  </metadata>
  <defs
     id="defs33">
    <linearGradient
       inkscape:collect="always"
       id="linearGradient1003">
      <stop
         style="stop-color:#ff5555;stop-opacity:1"
         offset="0"
         id="stop999" />
      <stop
         style="stop-color:#5555ff;stop-opacity:1"
         offset="0.50673079"
         id="stop1014" />
      <stop
         style="stop-color:#33e3b5;stop-opacity:1"
         offset="1"
         id="stop1001" />
    </linearGradient>
    <linearGradient
       inkscape:collect="always"
       xlink:href="#linearGradient1003"
       id="linearGradient1007"
       gradientUnits="userSpaceOnUse"
       x1="7.094677"
       y1="30.791054"
       x2="512.01093"
       y2="482.42755" />
  </defs>
  <sodipodi:namedview
     pagecolor="#ffffff"
     bordercolor="#666666"
     borderopacity="1"
     objecttolerance="10"
     gridtolerance="10"
     guidetolerance="10"
     inkscape:pageopacity="0"
     inkscape:pageshadow="2"
     inkscape:window-width="640"
     inkscape:window-height="480"
     id="namedview31"
     showgrid="false"
     inkscape:zoom="1.1504296"
     inkscape:cx="241.58991"
     inkscape:cy="218.01925"
     inkscape:current-layer="Capa_1" />
  <g
     id="g997"
     style="fill-opacity:1;fill:url(#linearGradient1007)">
    <g
       id="g28"
       style="fill-opacity:1;fill:url(#linearGradient1007)">
      <g
         id="g26"
         style="fill-opacity:1;fill:url(#linearGradient1007)">
        <path
           d="m482 27h-181c-5.522 0-10 4.477-10 10s4.478 10 10 10h181c5.514 0 10 4.486 10 10v58h-472v-58c0-5.514 4.486-10 10-10h181c5.522 0 10-4.477 10-10s-4.478-10-10-10h-181c-16.542 0-30 13.458-30 30v398c0 16.542 13.458 30 30 30h452c16.542 0 30-13.458 30-30v-398c0-16.542-13.458-30-30-30zm0 438h-452c-5.514 0-10-4.486-10-10v-320h472v320c0 5.514-4.486 10-10 10z"
           id="path2"
           style="fill-opacity:1;fill:url(#linearGradient1007)" />
        <path
           d="m209.915 81c0 5.523 4.478 10 10 10h228.085c5.522 0 10-4.477 10-10s-4.478-10-10-10h-228.085c-5.522 0-10 4.478-10 10z"
           id="path4"
           style="fill-opacity:1;fill:url(#linearGradient1007)" />
        <path
           d="m448 183h-152c-5.522 0-10 4.477-10 10v40c0 5.523 4.478 10 10 10h152c5.522 0 10-4.477 10-10v-40c0-5.523-4.478-10-10-10zm-10 40h-132v-20h132z"
           id="path6"
           style="fill-opacity:1;fill:url(#linearGradient1007)" />
        <path
           d="m448 269.099h-152c-5.522 0-10 4.477-10 10s4.478 10 10 10h152c5.522 0 10-4.477 10-10s-4.478-10-10-10z"
           id="path10"
           style="fill-opacity:1;fill:url(#linearGradient1007)" />
        <path
           d="m448 315.097h-152c-5.522 0-10 4.477-10 10s4.478 10 10 10h152c5.522 0 10-4.477 10-10s-4.478-10-10-10z"
           id="path12"
           style="fill-opacity:1;fill:url(#linearGradient1007)" />
        <path
           d="m448 361.096h-152c-5.522 0-10 4.477-10 10s4.478 10 10 10h152c5.522 0 10-4.477 10-10s-4.478-10-10-10z"
           id="path14"
           style="fill-opacity:1;fill:url(#linearGradient1007)" />
        <path
           d="m372 407.095h-76c-5.522 0-10 4.477-10 10s4.478 10 10 10h76c5.522 0 10-4.477 10-10s-4.478-10-10-10z"
           id="path16"
           style="fill-opacity:1;fill:url(#linearGradient1007)" />
        <circle
           cx="256"
           cy="37.002"
           r="10"
           id="circle18"
           style="fill-opacity:1;fill:url(#linearGradient1007)" />
        <circle
           cx="152.33"
           cy="81.002"
           r="10"
           id="circle20"
           style="fill-opacity:1;fill:url(#linearGradient1007)" />
        <circle
           cx="108.16"
           cy="81.002"
           r="10"
           id="circle22"
           style="fill-opacity:1;fill:url(#linearGradient1007)" />
        <circle
           cx="63.99"
           cy="81.002"
           r="10"
           id="circle24"
           style="fill-opacity:1;fill:url(#linearGradient1007)" />
      </g>
    </g>
    <g
       id="g960"
       style="fill:url(#linearGradient1007);fill-opacity:1">
      <g
         id="g937"
         transform="matrix(4.0142694,0,0,4.0142694,33.857306,190.95719)"
         style="stroke-width:0.249111;fill:url(#linearGradient1007);fill-opacity:1">
        <polygon
           style="fill:url(#linearGradient1007);stroke-width:0.249111;fill-opacity:1"
           points="29,55 0,19 58,19 "
           id="polygon870" />
        <polygon
           style="fill:url(#linearGradient1007);stroke-width:0.249111;fill-opacity:1"
           points="10,3 48,3 58,19 0,19 "
           id="polygon872" />
        <polygon
           style="fill:url(#linearGradient1007);stroke-width:0.249111;fill-opacity:1"
           points="10,3 15.846,19 42.154,19 48,3 "
           id="polygon874" />
        <polygon
           style="fill:url(#linearGradient1007);stroke-width:0.249111;fill-opacity:1"
           points="42,19 29,3 16,19 "
           id="polygon876" />
        <polygon
           style="fill:url(#linearGradient1007);stroke-width:0.249111;fill-opacity:1"
           points="15.846,19 29,55 42.154,19 "
           id="polygon878" />
        <g
           id="g880"
           style="stroke-width:0.249111;fill:url(#linearGradient1007);fill-opacity:1">
</g>
        <g
           id="g882"
           style="stroke-width:0.249111;fill:url(#linearGradient1007);fill-opacity:1">
</g>
        <g
           id="g884"
           style="stroke-width:0.249111;fill:url(#linearGradient1007);fill-opacity:1">
</g>
        <g
           id="g886"
           style="stroke-width:0.249111;fill:url(#linearGradient1007);fill-opacity:1">
</g>
        <g
           id="g888"
           style="stroke-width:0.249111;fill:url(#linearGradient1007);fill-opacity:1">
</g>
        <g
           id="g890"
           style="stroke-width:0.249111;fill:url(#linearGradient1007);fill-opacity:1">
</g>
        <g
           id="g892"
           style="stroke-width:0.249111;fill:url(#linearGradient1007);fill-opacity:1">
</g>
        <g
           id="g894"
           style="stroke-width:0.249111;fill:url(#linearGradient1007);fill-opacity:1">
</g>
        <g
           id="g896"
           style="stroke-width:0.249111;fill:url(#linearGradient1007);fill-opacity:1">
</g>
        <g
           id="g898"
           style="stroke-width:0.249111;fill:url(#linearGradient1007);fill-opacity:1">
</g>
        <g
           id="g900"
           style="stroke-width:0.249111;fill:url(#linearGradient1007);fill-opacity:1">
</g>
        <g
           id="g902"
           style="stroke-width:0.249111;fill:url(#linearGradient1007);fill-opacity:1">
</g>
        <g
           id="g904"
           style="stroke-width:0.249111;fill:url(#linearGradient1007);fill-opacity:1">
</g>
        <g
           id="g906"
           style="stroke-width:0.249111;fill:url(#linearGradient1007);fill-opacity:1">
</g>
        <g
           id="g908"
           style="stroke-width:0.249111;fill:url(#linearGradient1007);fill-opacity:1">
</g>
      </g>
    </g>
  </g>
</svg>
