<svg width="780" height="556" viewBox="0 0 780 556" fill="none" xmlns="http://www.w3.org/2000/svg">
<path fill-rule="evenodd" clip-rule="evenodd" d="M542.163 477.266L542.178 477.249L545.292 473.737L779.636 207.873L670.864 0H108.776L0 207.882L235.34 474.286L305.204 554.045V289.2L456.001 289.2L456.242 289.199L460.803 289.199C467.18 289.199 472.349 294.358 472.349 300.722V556L506.482 517.507L506.545 517.672L542.163 477.266ZM232.261 370.813L83.0406 200.205L152.374 66.5417H627.267L696.6 200.205L545.292 373.2V300.722C545.292 282.039 539.192 264.761 528.885 250.785C533.526 243.074 537.031 233.98 539.553 225.235C543.214 212.538 545.292 198.847 545.292 187.657C545.292 138.445 505.315 98.5506 456.001 98.5506H232.261V370.813ZM456.095 216.407H305.204V171.342H456.001C465.03 171.342 472.349 178.647 472.349 187.657C472.349 192.815 470.047 200.846 465.841 207.584C461.289 214.873 457.365 216.39 456.095 216.407Z" fill="black"/>
</svg>
