<?xml version="1.0" encoding="UTF-8" standalone="no"?>
<svg
   xmlns:dc="http://purl.org/dc/elements/1.1/"
   xmlns:cc="http://creativecommons.org/ns#"
   xmlns:rdf="http://www.w3.org/1999/02/22-rdf-syntax-ns#"
   xmlns:svg="http://www.w3.org/2000/svg"
   xmlns="http://www.w3.org/2000/svg"
   xmlns:sodipodi="http://sodipodi.sourceforge.net/DTD/sodipodi-0.dtd"
   xmlns:inkscape="http://www.inkscape.org/namespaces/inkscape"
   version="1.1"
   id="Capa_1"
   x="0px"
   y="0px"
   viewBox="0 0 512 512"
   style="enable-background:new 0 0 512 512;"
   xml:space="preserve"
   sodipodi:docname="person.svg"
   inkscape:version="1.0.2 (e86c870879, 2021-01-15, custom)"><metadata
   id="metadata47"><rdf:RDF><cc:Work
       rdf:about=""><dc:format>image/svg+xml</dc:format><dc:type
         rdf:resource="http://purl.org/dc/dcmitype/StillImage" /><dc:title></dc:title></cc:Work></rdf:RDF></metadata><defs
   id="defs45" /><sodipodi:namedview
   pagecolor="#ffffff"
   bordercolor="#666666"
   borderopacity="1"
   objecttolerance="10"
   gridtolerance="10"
   guidetolerance="10"
   inkscape:pageopacity="0"
   inkscape:pageshadow="2"
   inkscape:window-width="640"
   inkscape:window-height="480"
   id="namedview43"
   showgrid="false"
   inkscape:zoom="0.2876074"
   inkscape:cx="812.71461"
   inkscape:cy="288.29245"
   inkscape:current-layer="Capa_1" />
<path
   style="fill:#b1b1b1;fill-opacity:1"
   d="M418.88,344.021l-54.869-19.093c-4.015-1.393-8.473-0.27-11.349,2.859  c-24.328,28.17-59.449,44.719-96.661,45.547c-37.201-0.828-72.313-17.368-96.64-45.525c-2.876-3.129-7.335-4.252-11.349-2.859  l-54.869,19.093C37.383,363.423,0.006,415.978,0,475.008v15.659c0,5.891,4.776,10.667,10.667,10.667h490.667  c5.891,0,10.667-4.776,10.667-10.667v-15.659C512.006,415.976,474.637,363.411,418.88,344.021z"
   id="path2" />
<path
   style="fill:#a9a9a9;fill-opacity:1"
   d="M 256,10.667 C 59.027258,52.341701 140.15899,337.02579 256,352 442.92092,297.88233 437.37235,23.145649 256,10.667 Z"
   id="path4"
   sodipodi:nodetypes="ccc" />

<g
   id="g12">
</g>
<g
   id="g14">
</g>
<g
   id="g16">
</g>
<g
   id="g18">
</g>
<g
   id="g20">
</g>
<g
   id="g22">
</g>
<g
   id="g24">
</g>
<g
   id="g26">
</g>
<g
   id="g28">
</g>
<g
   id="g30">
</g>
<g
   id="g32">
</g>
<g
   id="g34">
</g>
<g
   id="g36">
</g>
<g
   id="g38">
</g>
<g
   id="g40">
</g>
</svg>
