<svg xmlns="http://www.w3.org/2000/svg" viewBox="0 0 512 512"><linearGradient id="a" gradientUnits="userSpaceOnUse" x1="256" x2="256" y1="512" y2="30"><stop offset="0" stop-color="#fd3a84"/><stop offset="1" stop-color="#ffa68d"/></linearGradient><linearGradient id="b" gradientUnits="userSpaceOnUse" x1="226" x2="226" y1="392" y2="0"><stop offset="0" stop-color="#ffc2cc"/><stop offset="1" stop-color="#fff2f4"/></linearGradient><path d="M392 243l-30-30v-61c17 0 30-13 30-30V45c0-8-7-15-15-15H15C7 30 0 37 0 45v77c0 17 15 30 32 30v210l180 15 31 15a135 135 0 10149-149z" fill="url(#a)"/><path d="M377 242l15 1V122H0v255c0 8 7 15 15 15h228l-1-15c0-74 61-135 135-135zm-60-60c8 0 15 7 15 15s-7 15-15 15-15-7-15-15 7-15 15-15zM77 332c-8 0-15-7-15-15s7-15 15-15 15 7 15 15-7 15-15 15zm0-60c-8 0-15-7-15-15s7-15 15-15 15 7 15 15-7 15-15 15zm0-60c-8 0-15-7-15-15s7-15 15-15 15 7 15 15-7 15-15 15zm60 120c-8 0-15-7-15-15s7-15 15-15 15 7 15 15-7 15-15 15zm0-60c-8 0-15-7-15-15s7-15 15-15 15 7 15 15-7 15-15 15zm0-60c-8 0-15-7-15-15s7-15 15-15 15 7 15 15-7 15-15 15zm60 120c-8 0-15-7-15-15s7-15 15-15 15 7 15 15-7 15-15 15zm0-60c-8 0-15-7-15-15s7-15 15-15 15 7 15 15-7 15-15 15zm0-60c-8 0-15-7-15-15s7-15 15-15 15 7 15 15-7 15-15 15zm60 60c-8 0-15-7-15-15s7-15 15-15 15 7 15 15-7 15-15 15zm0-60c-8 0-15-7-15-15s7-15 15-15 15 7 15 15-7 15-15 15zm180 150h-45v-45a15 15 0 10-30 0v60c0 8 7 15 15 15h60a15 15 0 100-30zM77 90c8 0 15-7 15-15V15a15 15 0 10-30 0v60c0 8 7 15 15 15zm240 0c8 0 15-7 15-15V15a15 15 0 10-30 0v60c0 8 7 15 15 15z" fill="url(#b)"/></svg>