<svg xmlns="http://www.w3.org/2000/svg" viewBox="0 0 510 510"><g fill="#ff0b54"><path d="M270 165a45 45 0 100-90 45 45 0 000 90zm0-60a15 15 0 110 30 15 15 0 010-30zM195 180h30v30h-30zM240 255h30v30h-30zM75 300h30v30H75zM360 150h30v30h-30zM315 225h30v30h-30z"/><path d="M510 195c0-43-14-71-16-78l-12 2c-26 5-52-10-60-36l-4-15-15 5a45 45 0 01-57-54l4-17-35-2c-85 0-158 55-184 131a195 195 0 10248 248c76-26 131-99 131-184zM315 30c0 45 39 80 84 74 14 28 42 46 75 46 9 31 8 66-3 99a75 75 0 00-102 102 165 165 0 11-54-321zM62 412c43-23 94 13 87 62-35-11-66-33-87-62zm117 67a90 90 0 00-133-93c-38-80-6-179 76-219a195 195 0 00221 221c-31 63-97 98-164 91zm218-141c-5-7-7-15-7-23 0-35 39-56 68-38-14 25-36 47-61 61z"/></g></svg>