<svg xmlns="http://www.w3.org/2000/svg" viewBox="0 0 512 512"><path d="M120 256c0-25 7-49 19-69v-87H53a254 254 0 000 312h86v-87c-12-20-19-44-19-69z" fill="#fbbd00"/><path d="M256 392l-60 60 60 60c57 0 111-19 156-53v-86h-86c-21 12-45 19-70 19z" fill="#0f9d58"/><path d="M139 325l-86 87a260 260 0 00203 100V392c-50 0-93-27-117-67z" fill="#31aa52"/><path d="M512 256c0-16-1-31-4-46l-2-13H256v120h121c-11 24-29 43-51 56l86 86a260 260 0 00100-203z" fill="#3c79e6"/><path d="M352 160l11 10 85-84-11-11C389 27 324 0 256 0l-60 60 60 60c36 0 70 14 96 40z" fill="#cf2d48"/><path d="M256 120V0A254 254 0 0053 100l86 87c24-40 67-67 117-67z" fill="#eb4132"/></svg>