<?xml version="1.0" encoding="UTF-8" standalone="no"?>
<svg
   xmlns:dc="http://purl.org/dc/elements/1.1/"
   xmlns:cc="http://creativecommons.org/ns#"
   xmlns:rdf="http://www.w3.org/1999/02/22-rdf-syntax-ns#"
   xmlns:svg="http://www.w3.org/2000/svg"
   xmlns="http://www.w3.org/2000/svg"
   xmlns:sodipodi="http://sodipodi.sourceforge.net/DTD/sodipodi-0.dtd"
   xmlns:inkscape="http://www.inkscape.org/namespaces/inkscape"
   id="color"
   enable-background="new 0 0 24 24"
   height="512"
   viewBox="0 0 18 24"
   width="384"
   version="1.1"
   sodipodi:docname="clipboard.svg"
   inkscape:version="1.0.2 (e86c870879, 2021-01-15, custom)">
  <metadata
     id="metadata37">
    <rdf:RDF>
      <cc:Work
         rdf:about="">
        <dc:format>image/svg+xml</dc:format>
        <dc:type
           rdf:resource="http://purl.org/dc/dcmitype/StillImage" />
      </cc:Work>
    </rdf:RDF>
  </metadata>
  <defs
     id="defs35" />
  <sodipodi:namedview
     pagecolor="#ffffff"
     bordercolor="#666666"
     borderopacity="1"
     objecttolerance="10"
     gridtolerance="10"
     guidetolerance="10"
     inkscape:pageopacity="0"
     inkscape:pageshadow="2"
     inkscape:window-width="640"
     inkscape:window-height="480"
     id="namedview33"
     showgrid="false"
     inkscape:zoom="0.81347656"
     inkscape:cx="255.34885"
     inkscape:cy="284.94103"
     inkscape:current-layer="color" />
  <path
     d="M 15.25,24 H 2.75 C 1.233,24 0,22.767 0,21.25 V 5.75 C 0,4.233 1.233,3 2.75,3 h 12.5 C 16.767,3 18,4.233 18,5.75 v 15.5 C 18,22.767 16.767,24 15.25,24 Z"
     fill="#2196f3"
     id="path2"
     style="fill:#ff0b54;fill-opacity:1" />
  <path
     d="M 12.25,6 H 5.75 C 4.785,6 4,5.215 4,4.25 V 2.75 C 4,2.336 4.336,2 4.75,2 H 6.353 C 6.682,0.847 7.743,0 9,0 c 1.257,0 2.318,0.847 2.646,2 H 13.25 C 13.664,2 14,2.336 14,2.75 v 1.5 C 14,5.215 13.215,6 12.25,6 Z"
     fill="#1976d2"
     id="path4"
     style="fill:#ff5386;fill-opacity:1;stroke-width:0.999984;stroke-miterlimit:4;stroke-dasharray:none" />
  <path
     d="M 4,3 H 2.75 C 1.233,3 0,4.233 0,5.75 v 15.5 C 0,22.767 1.233,24 2.75,24 H 9 V 6 H 5.75 C 4.785,6 4,5.215 4,4.25 Z"
     fill="#1d83d4"
     id="path6"
     style="fill:#e70046;fill-opacity:1" />
  <path
     d="M 9,0 C 7.743,0 6.682,0.847 6.354,2 H 4.75 C 4.336,2 4,2.336 4,2.75 V 3 4.25 C 4,5.215 4.785,6 5.75,6 H 9 Z"
     fill="#1667b7"
     id="path8"
     style="fill:#ff2969;fill-opacity:1" />
  <g
     fill="#ffffff"
     id="g18">
    <path
       d="M 14.25,10.5 H 3.75 C 3.336,10.5 3,10.164 3,9.75 3,9.336 3.336,9 3.75,9 h 10.5 C 14.664,9 15,9.336 15,9.75 c 0,0.414 -0.336,0.75 -0.75,0.75 z"
       id="path10" />
    <path
       d="M 14.25,13.5 H 3.75 C 3.336,13.5 3,13.164 3,12.75 3,12.336 3.336,12 3.75,12 h 10.5 c 0.414,0 0.75,0.336 0.75,0.75 0,0.414 -0.336,0.75 -0.75,0.75 z"
       id="path12" />
    <path
       d="M 14.25,16.5 H 3.75 C 3.336,16.5 3,16.164 3,15.75 3,15.336 3.336,15 3.75,15 h 10.5 c 0.414,0 0.75,0.336 0.75,0.75 0,0.414 -0.336,0.75 -0.75,0.75 z"
       id="path14" />
    <path
       d="M 14.25,19.5 H 3.75 C 3.336,19.5 3,19.164 3,18.75 3,18.336 3.336,18 3.75,18 h 10.5 c 0.414,0 0.75,0.336 0.75,0.75 0,0.414 -0.336,0.75 -0.75,0.75 z"
       id="path16" />
  </g>
  <path
     d="M 9,9 H 3.75 C 3.336,9 3,9.336 3,9.75 3,10.164 3.336,10.5 3.75,10.5 H 9 Z"
     fill="#dedede"
     id="path20" />
  <path
     d="M 9,12 H 3.75 C 3.336,12 3,12.336 3,12.75 3,13.164 3.336,13.5 3.75,13.5 H 9 Z"
     fill="#dedede"
     id="path22" />
  <path
     d="M 9,15 H 3.75 C 3.336,15 3,15.336 3,15.75 3,16.164 3.336,16.5 3.75,16.5 H 9 Z"
     fill="#dedede"
     id="path24" />
  <path
     d="M 9,18 H 3.75 C 3.336,18 3,18.336 3,18.75 3,19.164 3.336,19.5 3.75,19.5 H 9 Z"
     fill="#dedede"
     id="path26" />
</svg>
