<svg width="25" height="26" viewBox="0 0 25 26" fill="none" xmlns="http://www.w3.org/2000/svg">
<path fill-rule="evenodd" clip-rule="evenodd" d="M0 13C0 19.9036 5.59644 25.5 12.5 25.5C19.4036 25.5 25 19.9036 25 13C25 6.09644 19.4036 0.5 12.5 0.5C5.59644 0.5 0 6.09644 0 13ZM10.2084 18.7292L10.421 15.5428L10.4209 15.5427L16.2172 10.312C16.4716 10.0862 16.1616 9.97612 15.8239 10.1809L8.67049 14.6939L5.58059 13.7295C4.91331 13.5252 4.90852 13.0667 5.7304 12.737L17.771 8.0942C18.321 7.84454 18.8517 8.22629 18.6418 9.06798L16.5913 18.7308C16.4481 19.4174 16.0332 19.5817 15.4584 19.2645L12.3348 16.9567L10.8334 18.4167C10.8286 18.4213 10.8239 18.4259 10.8192 18.4304C10.6513 18.5939 10.5124 18.7292 10.2084 18.7292Z" fill="#FF0B54"/>
</svg>
