<svg width="25" height="26" viewBox="0 0 25 26" fill="none" xmlns="http://www.w3.org/2000/svg">
<path fill-rule="evenodd" clip-rule="evenodd" d="M12.5 0.5C5.59644 0.5 0 6.09644 0 13C0 19.9036 5.59644 25.5 12.5 25.5C19.4036 25.5 25 19.9036 25 13C25 6.09644 19.4036 0.5 12.5 0.5ZM12.1519 11.0927L12.1256 10.6601C12.0469 9.5391 12.7377 8.51516 13.8306 8.11794C14.2328 7.9767 14.9148 7.95905 15.3607 8.08263C15.5356 8.13559 15.8678 8.31213 16.1039 8.47102L16.5323 8.76232L17.0045 8.61226C17.2668 8.53281 17.6165 8.40041 17.7739 8.31213C17.9226 8.23269 18.0537 8.18855 18.0537 8.21504C18.0537 8.3651 17.7302 8.87707 17.4592 9.15954C17.0919 9.55676 17.1969 9.59206 17.94 9.32725C18.386 9.17719 18.3947 9.17719 18.3073 9.34491C18.2548 9.43318 17.9838 9.74213 17.6952 10.0246C17.2056 10.5101 17.1794 10.563 17.1794 10.9691C17.1794 11.5958 16.8821 12.9022 16.5848 13.6172C16.034 14.9589 14.8536 16.3448 13.6732 17.0421C12.012 18.022 9.79986 18.2691 7.93749 17.6953C7.31671 17.5012 6.25 17.0068 6.25 16.9186C6.25 16.8921 6.57351 16.8568 6.96697 16.8479C7.78885 16.8303 8.61074 16.6008 9.31022 16.1947L9.78237 15.9123L9.24027 15.7269C8.47085 15.4621 7.78011 14.853 7.60524 14.2793C7.55278 14.0939 7.57027 14.0851 8.0599 14.0851L8.56703 14.0762L8.13859 13.8732C7.63147 13.6172 7.16807 13.1847 6.94074 12.7433C6.77461 12.4256 6.56477 11.6223 6.62597 11.5605C6.64346 11.534 6.82707 11.587 7.03691 11.6576C7.64021 11.8783 7.71891 11.8253 7.36917 11.4546C6.71341 10.7837 6.5123 9.78626 6.82707 8.84176L6.97571 8.41806L7.55278 8.99182C8.73315 10.1482 10.1234 10.8367 11.7147 11.0397L12.1519 11.0927Z" fill="#FF0B54"/>
</svg>
